<mxfile host="65bd71144e">
    <diagram id="I47w_D9XYKwpcMbqt0sD" name="Page-1">
        <mxGraphModel dx="1146" dy="667" grid="1" gridSize="10" guides="1" tooltips="1" connect="1" arrows="1" fold="1" page="1" pageScale="1" pageWidth="850" pageHeight="1100" math="0" shadow="0">
            <root>
                <mxCell id="0"/>
                <mxCell id="1" parent="0"/>
                <mxCell id="2" value="Linux入门" style="rounded=0;whiteSpace=wrap;html=1;" vertex="1" parent="1">
                    <mxGeometry x="170" y="200" width="120" height="40" as="geometry"/>
                </mxCell>
                <mxCell id="3" value="ROS/ROS2" style="rounded=0;whiteSpace=wrap;html=1;" vertex="1" parent="1">
                    <mxGeometry x="170" y="300" width="120" height="40" as="geometry"/>
                </mxCell>
                <mxCell id="4" value="计算机网络基本知识" style="rounded=0;whiteSpace=wrap;html=1;" vertex="1" parent="1">
                    <mxGeometry x="170" y="400" width="120" height="40" as="geometry"/>
                </mxCell>
                <mxCell id="6" value="工具类" style="swimlane;whiteSpace=wrap;html=1;" vertex="1" parent="1">
                    <mxGeometry x="340" y="210" width="200" height="220" as="geometry"/>
                </mxCell>
                <mxCell id="5" value="Git" style="rounded=0;whiteSpace=wrap;html=1;" vertex="1" parent="6">
                    <mxGeometry x="30" y="40" width="140" height="40" as="geometry"/>
                </mxCell>
                <mxCell id="7" value="VSCode" style="rounded=0;whiteSpace=wrap;html=1;" vertex="1" parent="6">
                    <mxGeometry x="30" y="100" width="140" height="40" as="geometry"/>
                </mxCell>
                <mxCell id="8" value="Cursor" style="rounded=0;whiteSpace=wrap;html=1;" vertex="1" parent="6">
                    <mxGeometry x="30" y="160" width="140" height="40" as="geometry"/>
                </mxCell>
            </root>
        </mxGraphModel>
    </diagram>
</mxfile>